<?xml version="1.0" standalone="no"?>
<!DOCTYPE svg PUBLIC "-//W3C//DTD SVG 20010904//EN"
 "http://www.w3.org/TR/2001/REC-SVG-20010904/DTD/svg10.dtd">
<svg version="1.0" xmlns="http://www.w3.org/2000/svg"
 width="1024.000000pt" height="1024.000000pt" viewBox="0 0 1024.000000 1024.000000"
 preserveAspectRatio="xMidYMid meet">

<g transform="translate(0.000000,1024.000000) scale(0.100000,-0.100000)"
fill="#000000" stroke="none">
<path d="M4839 8665 c-317 -50 -626 -186 -872 -385 -346 -279 -569 -646 -663
-1095 -25 -118 -28 -150 -28 -345 -1 -224 5 -283 50 -462 39 -156 117 -358
139 -358 7 0 74 36 149 81 l136 80 -16 31 c-9 18 -30 70 -46 116 -161 465 -95
954 183 1372 81 122 263 304 384 386 177 119 179 118 47 -20 -252 -264 -412
-565 -484 -912 -29 -144 -32 -422 -5 -557 26 -127 70 -255 127 -367 l51 -98
82 -35 c106 -45 251 -91 352 -111 76 -15 225 -35 225 -30 0 1 -37 27 -83 57
-164 110 -312 296 -377 475 -52 143 -63 211 -64 382 0 122 5 179 23 270 98
496 389 924 799 1175 l62 38 0 163 0 164 -42 -1 c-24 -1 -82 -7 -129 -14z"/>
<path d="M5232 8518 l3 -163 70 -8 c181 -19 417 -99 580 -196 423 -252 695
-679 745 -1170 12 -124 13 -219 2 -205 -5 5 -17 45 -27 89 -44 197 -146 425
-276 621 -96 143 -295 345 -428 433 -225 149 -422 218 -681 240 -140 12 -184
4 -267 -49 -94 -61 -296 -265 -365 -370 -31 -47 -55 -86 -54 -88 2 -2 24 11
50 28 71 48 189 99 295 128 82 22 117 25 241 25 125 0 159 -3 244 -26 468
-125 924 -645 1061 -1210 27 -108 55 -300 55 -370 0 -41 2 -43 58 -75 31 -17
99 -56 150 -87 l93 -55 30 68 c194 425 210 953 43 1400 -216 578 -694 1004
-1299 1156 -70 18 -252 46 -295 46 l-30 0 2 -162z"/>
<path d="M4750 6836 c0 -339 2 -616 4 -616 3 0 103 58 223 128 120 71 340 200
488 287 355 207 338 197 328 205 -4 4 -226 134 -493 290 -267 155 -500 291
-517 302 l-33 20 0 -616z"/>
<path d="M6120 6825 c0 -99 -28 -235 -69 -340 -140 -361 -449 -594 -913 -687
-150 -30 -498 -33 -648 -5 -199 37 -420 106 -548 171 -28 14 -57 26 -63 26
-14 0 -287 -159 -295 -171 -17 -28 248 -322 391 -434 379 -296 848 -439 1300
-396 407 39 781 202 1076 468 120 108 310 329 309 359 0 5 -63 46 -140 90
l-139 82 -54 -72 c-312 -411 -839 -647 -1332 -596 -215 22 -362 63 -540 152
-98 49 -240 137 -232 144 2 2 28 -6 58 -17 30 -12 109 -36 177 -55 521 -142
1042 -68 1422 205 151 108 308 279 390 424 32 56 32 61 26 135 -17 181 -77
408 -144 537 l-31 60 -1 -80z"/>
<path d="M3876 4599 c-344 -50 -575 -224 -641 -484 -43 -170 6 -377 116 -487
118 -118 236 -169 594 -258 278 -69 340 -90 399 -135 82 -63 89 -183 14 -251
-52 -48 -119 -72 -235 -83 -232 -23 -504 47 -717 183 -32 21 -62 34 -66 29 -5
-4 -44 -86 -88 -181 l-81 -172 57 -39 c189 -128 432 -200 732 -217 219 -12
431 25 596 106 219 106 343 298 344 530 0 217 -106 379 -315 480 -100 48 -196
77 -455 136 -240 54 -334 89 -383 143 -82 91 -44 218 84 278 65 30 138 43 248
43 173 0 326 -37 499 -121 46 -22 85 -39 87 -37 2 2 29 64 60 138 30 74 64
154 75 178 l20 42 -47 30 c-99 63 -308 128 -478 149 -103 13 -332 13 -419 0z"/>
<path d="M6036 4599 c-392 -57 -711 -297 -855 -644 -17 -39 -39 -118 -51 -175
-19 -90 -21 -127 -17 -260 7 -223 53 -377 161 -539 155 -233 400 -393 701
-457 113 -24 378 -24 500 0 198 39 381 135 518 274 l78 78 -93 90 c-135 131
-204 194 -213 194 -4 0 -40 -31 -81 -69 -122 -116 -267 -171 -453 -171 -158 0
-316 57 -428 155 -70 61 -143 174 -173 265 -22 66 -25 93 -25 220 0 156 8 196
66 311 80 161 233 274 422 313 215 45 449 -21 604 -169 l67 -64 61 56 c201
188 245 235 235 253 -14 27 -125 126 -191 171 -123 83 -292 146 -453 168 -89
13 -294 12 -380 0z"/>
<path d="M1824 2108 c-54 -18 -126 -80 -153 -133 -37 -71 -41 -173 -11 -244
59 -136 228 -205 377 -155 52 18 113 60 113 78 0 7 -15 27 -34 45 l-34 33 -43
-29 c-55 -36 -151 -40 -196 -7 -50 37 -73 81 -73 141 0 108 51 165 156 171 63
4 106 -10 133 -42 12 -14 18 -11 57 21 l45 36 -22 23 c-12 13 -45 35 -73 49
-42 21 -63 25 -130 24 -45 -1 -95 -6 -112 -11z"/>
<path d="M2400 2111 c-121 -37 -200 -144 -200 -271 0 -85 31 -151 95 -208 114
-101 311 -95 417 13 59 59 73 98 73 195 0 97 -16 141 -73 198 -57 56 -124 82
-212 81 -41 0 -86 -4 -100 -8z m185 -122 c72 -43 100 -170 53 -239 -40 -58
-72 -75 -143 -75 -71 0 -103 17 -142 75 -45 65 -22 192 41 234 57 37 135 39
191 5z"/>
<path d="M2890 1843 l0 -273 201 0 200 0 -4 53 -4 52 -137 3 -136 3 0 213 0
214 -60 4 -60 3 0 -272z"/>
<path d="M3520 2111 c-46 -14 -85 -39 -122 -78 -130 -135 -93 -352 76 -441 44
-23 63 -27 141 -27 107 0 161 20 223 85 53 54 75 121 70 208 -7 112 -61 191
-162 238 -40 19 -67 24 -126 23 -41 0 -86 -4 -100 -8z m190 -123 c53 -36 72
-81 68 -160 -3 -61 -7 -71 -38 -103 -41 -42 -88 -59 -147 -52 -85 9 -135 67
-140 160 -7 112 55 177 168 177 42 0 64 -6 89 -22z"/>
<path d="M4010 1843 l0 -273 65 0 65 0 0 80 0 80 43 -1 c62 -1 71 -7 124 -84
l48 -70 68 -3 c37 -2 67 0 67 3 0 4 -25 43 -55 86 l-54 80 43 42 c91 87 84
215 -16 287 -49 36 -64 38 -250 43 l-148 3 0 -273z m320 141 c11 -11 23 -36
26 -55 5 -29 1 -41 -19 -65 -24 -27 -31 -29 -111 -33 l-86 -3 0 92 0 92 85 -3
c69 -3 88 -8 105 -25z"/>
<path d="M4945 2096 c-113 -52 -165 -132 -165 -252 0 -117 50 -203 147 -250
51 -26 69 -29 153 -29 86 0 101 3 155 30 l60 30 3 113 3 112 -61 0 -60 0 0
-79 0 -79 -31 -11 c-43 -15 -103 -14 -142 3 -71 29 -116 118 -98 195 19 86 79
131 173 131 50 0 73 -7 125 -41 21 -13 26 -11 60 24 l38 38 -34 29 c-75 64
-230 81 -326 36z"/>
<path d="M5414 2111 c-2 -2 -4 -125 -4 -273 l0 -268 65 0 65 0 0 80 0 80 53 0
53 0 55 -80 54 -80 68 0 c52 0 66 3 61 13 -4 6 -30 45 -57 86 l-49 73 36 30
c51 42 66 76 66 150 0 76 -20 115 -81 155 -45 30 -43 29 -282 35 -54 2 -101 1
-103 -1z m318 -129 c16 -15 23 -34 23 -62 0 -66 -28 -84 -130 -89 l-85 -3 0
92 0 92 85 -3 c72 -3 88 -7 107 -27z"/>
<path d="M6150 2105 c-6 -8 -151 -331 -221 -492 l-18 -43 64 0 65 0 25 55 24
55 129 0 130 0 22 -55 22 -55 68 0 68 0 -122 269 -121 269 -63 4 c-35 2 -67
-1 -72 -7z m114 -228 c20 -48 36 -89 36 -92 0 -3 -39 -5 -86 -5 -65 0 -85 3
-81 13 52 127 81 187 87 180 5 -4 24 -47 44 -96z"/>
<path d="M6587 2110 c-1 -3 -1 -125 1 -272 l3 -268 153 0 c195 0 239 12 310
83 57 58 76 104 76 187 0 77 -18 126 -67 180 -68 76 -107 88 -306 92 -93 2
-169 1 -170 -2z m327 -120 c60 -30 80 -63 84 -140 3 -55 0 -70 -20 -100 -36
-54 -78 -70 -180 -70 l-88 0 0 165 0 165 82 0 c62 0 92 -5 122 -20z"/>
<path d="M8232 2090 c-106 -54 -158 -148 -150 -267 6 -84 32 -137 94 -192 90
-79 243 -94 363 -34 l56 28 3 113 3 112 -61 0 -60 0 0 -79 0 -79 -36 -12 c-48
-16 -129 -8 -162 17 -73 54 -95 155 -51 233 50 89 185 107 281 38 15 -11 23
-8 55 24 43 43 39 52 -36 96 -39 23 -59 27 -141 30 -90 3 -98 2 -158 -28z"/>
<path d="M7228 1840 l3 -270 59 0 60 0 0 270 0 270 -62 0 -63 0 3 -270z"/>
<path d="M7480 1840 l0 -270 60 0 60 0 2 163 3 162 135 -162 135 -163 53 0 52
0 0 270 0 270 -60 0 -60 0 -2 -161 -3 -162 -133 162 -133 161 -54 0 -55 0 0
-270z"/>
</g>
</svg>
